<svg xmlns="http://www.w3.org/2000/svg" version="1.1" xmlns:xlink="http://www.w3.org/1999/xlink" xmlns:svgjs="http://svgjs.com/svgjs" width="1440" height="1000" preserveAspectRatio="none" viewBox="0 0 1440 1000"><g mask="url(&quot;#SvgjsMask1081&quot;)" fill="none"><rect width="1440" height="1000" x="0" y="0" fill="rgba(255, 255, 255, 1)"></rect><path d="M176 656L760 1240" stroke-width="6" stroke="url(#SvgjsLinearGradient1082)" stroke-linecap="round" class="BottomRight"></path><path d="M891 848L411 368" stroke-width="10" stroke="url(#SvgjsLinearGradient1082)" stroke-linecap="round" class="BottomRight"></path><path d="M593 965L300 672" stroke-width="8" stroke="url(#SvgjsLinearGradient1082)" stroke-linecap="round" class="BottomRight"></path><path d="M238 783L545 1090" stroke-width="6" stroke="url(#SvgjsLinearGradient1083)" stroke-linecap="round" class="TopLeft"></path><path d="M1107 969L646 508" stroke-width="6" stroke="url(#SvgjsLinearGradient1082)" stroke-linecap="round" class="BottomRight"></path><path d="M601 18L277 -306" stroke-width="6" stroke="url(#SvgjsLinearGradient1082)" stroke-linecap="round" class="BottomRight"></path><path d="M473 778L120 425" stroke-width="6" stroke="url(#SvgjsLinearGradient1082)" stroke-linecap="round" class="BottomRight"></path><path d="M315 728L-25 388" stroke-width="10" stroke="url(#SvgjsLinearGradient1082)" stroke-linecap="round" class="BottomRight"></path><path d="M290 659L618 987" stroke-width="6" stroke="url(#SvgjsLinearGradient1083)" stroke-linecap="round" class="TopLeft"></path><path d="M527 837L170 480" stroke-width="8" stroke="url(#SvgjsLinearGradient1083)" stroke-linecap="round" class="TopLeft"></path><path d="M332 103L972 743" stroke-width="8" stroke="url(#SvgjsLinearGradient1083)" stroke-linecap="round" class="TopLeft"></path><path d="M844 488L203 -153" stroke-width="8" stroke="url(#SvgjsLinearGradient1082)" stroke-linecap="round" class="BottomRight"></path><path d="M93 882L-229 560" stroke-width="8" stroke="url(#SvgjsLinearGradient1083)" stroke-linecap="round" class="TopLeft"></path><path d="M368 171L937 740" stroke-width="6" stroke="url(#SvgjsLinearGradient1083)" stroke-linecap="round" class="TopLeft"></path><path d="M410 180L-235 -465" stroke-width="6" stroke="url(#SvgjsLinearGradient1083)" stroke-linecap="round" class="TopLeft"></path><path d="M404 646L1129 1371" stroke-width="10" stroke="url(#SvgjsLinearGradient1083)" stroke-linecap="round" class="TopLeft"></path><path d="M329 769L1001 1441" stroke-width="8" stroke="url(#SvgjsLinearGradient1082)" stroke-linecap="round" class="BottomRight"></path><path d="M236 200L490 454" stroke-width="8" stroke="url(#SvgjsLinearGradient1083)" stroke-linecap="round" class="TopLeft"></path><path d="M917 792L657 532" stroke-width="8" stroke="url(#SvgjsLinearGradient1083)" stroke-linecap="round" class="TopLeft"></path><path d="M709 851L369 511" stroke-width="8" stroke="url(#SvgjsLinearGradient1082)" stroke-linecap="round" class="BottomRight"></path><path d="M139 173L-295 -261" stroke-width="10" stroke="url(#SvgjsLinearGradient1083)" stroke-linecap="round" class="TopLeft"></path><path d="M153 938L-142 643" stroke-width="6" stroke="url(#SvgjsLinearGradient1082)" stroke-linecap="round" class="BottomRight"></path><path d="M478 47L982 551" stroke-width="10" stroke="url(#SvgjsLinearGradient1082)" stroke-linecap="round" class="BottomRight"></path><path d="M402 811L-80 329" stroke-width="10" stroke="url(#SvgjsLinearGradient1082)" stroke-linecap="round" class="BottomRight"></path><path d="M971 165L1599 793" stroke-width="10" stroke="url(#SvgjsLinearGradient1082)" stroke-linecap="round" class="BottomRight"></path><path d="M1110 293L1625 808" stroke-width="8" stroke="url(#SvgjsLinearGradient1082)" stroke-linecap="round" class="BottomRight"></path><path d="M673 712L376 415" stroke-width="10" stroke="url(#SvgjsLinearGradient1082)" stroke-linecap="round" class="BottomRight"></path><path d="M1117 359L1775 1017" stroke-width="10" stroke="url(#SvgjsLinearGradient1083)" stroke-linecap="round" class="TopLeft"></path><path d="M740 729L1341 1330" stroke-width="10" stroke="url(#SvgjsLinearGradient1083)" stroke-linecap="round" class="TopLeft"></path><path d="M895 595L436 136" stroke-width="6" stroke="url(#SvgjsLinearGradient1082)" stroke-linecap="round" class="BottomRight"></path><path d="M1062 973L1550 1461" stroke-width="6" stroke="url(#SvgjsLinearGradient1082)" stroke-linecap="round" class="BottomRight"></path><path d="M459 38L828 407" stroke-width="6" stroke="url(#SvgjsLinearGradient1083)" stroke-linecap="round" class="TopLeft"></path><path d="M449 417L928 896" stroke-width="8" stroke="url(#SvgjsLinearGradient1082)" stroke-linecap="round" class="BottomRight"></path><path d="M935 465L1559 1089" stroke-width="6" stroke="url(#SvgjsLinearGradient1082)" stroke-linecap="round" class="BottomRight"></path><path d="M578 856L287 565" stroke-width="8" stroke="url(#SvgjsLinearGradient1083)" stroke-linecap="round" class="TopLeft"></path><path d="M489 201L-224 -512" stroke-width="6" stroke="url(#SvgjsLinearGradient1083)" stroke-linecap="round" class="TopLeft"></path><path d="M1282 113L689 -480" stroke-width="10" stroke="url(#SvgjsLinearGradient1082)" stroke-linecap="round" class="BottomRight"></path><path d="M660 175L1280 795" stroke-width="8" stroke="url(#SvgjsLinearGradient1082)" stroke-linecap="round" class="BottomRight"></path><path d="M1370 984L1113 727" stroke-width="10" stroke="url(#SvgjsLinearGradient1082)" stroke-linecap="round" class="BottomRight"></path><path d="M519 602L1054 1137" stroke-width="6" stroke="url(#SvgjsLinearGradient1083)" stroke-linecap="round" class="TopLeft"></path><path d="M485 962L1234 1711" stroke-width="6" stroke="url(#SvgjsLinearGradient1083)" stroke-linecap="round" class="TopLeft"></path><path d="M58 500L739 1181" stroke-width="10" stroke="url(#SvgjsLinearGradient1083)" stroke-linecap="round" class="TopLeft"></path><path d="M756 147L442 -167" stroke-width="6" stroke="url(#SvgjsLinearGradient1082)" stroke-linecap="round" class="BottomRight"></path><path d="M707 892L1319 1504" stroke-width="6" stroke="url(#SvgjsLinearGradient1082)" stroke-linecap="round" class="BottomRight"></path></g><defs><mask id="SvgjsMask1081"><rect width="1440" height="1000" fill="#ffffff"></rect></mask><linearGradient x1="0%" y1="0%" x2="100%" y2="100%" id="SvgjsLinearGradient1082"><stop stop-color="rgba(237, 237, 237, 0)" offset="0"></stop><stop stop-color="rgba(237, 237, 237, 1)" offset="1"></stop></linearGradient><linearGradient x1="100%" y1="100%" x2="0%" y2="0%" id="SvgjsLinearGradient1083"><stop stop-color="rgba(237, 237, 237, 0)" offset="0"></stop><stop stop-color="rgba(237, 237, 237, 1)" offset="1"></stop></linearGradient></defs></svg>