<svg xmlns="http://www.w3.org/2000/svg" version="1.1" xmlns:xlink="http://www.w3.org/1999/xlink" xmlns:svgjs="http://svgjs.com/svgjs" width="1440" height="915" preserveAspectRatio="none" viewBox="0 0 1440 915"><g mask="url(&quot;#SvgjsMask1033&quot;)" fill="none"><rect width="1440" height="915" x="0" y="0" fill="#0e2a47"></rect><path d="M749 181L1422 -492" stroke-width="10" stroke="url(#SvgjsLinearGradient1034)" stroke-linecap="round" class="TopRight"></path><path d="M871 513L1434 -50" stroke-width="6" stroke="url(#SvgjsLinearGradient1035)" stroke-linecap="round" class="BottomLeft"></path><path d="M980 841L685 1136" stroke-width="10" stroke="url(#SvgjsLinearGradient1034)" stroke-linecap="round" class="TopRight"></path><path d="M949 184L1511 -378" stroke-width="6" stroke="url(#SvgjsLinearGradient1034)" stroke-linecap="round" class="TopRight"></path><path d="M257 680L670 267" stroke-width="6" stroke="url(#SvgjsLinearGradient1034)" stroke-linecap="round" class="TopRight"></path><path d="M1401 188L1894 -305" stroke-width="10" stroke="url(#SvgjsLinearGradient1035)" stroke-linecap="round" class="BottomLeft"></path><path d="M215 731L-392 1338" stroke-width="8" stroke="url(#SvgjsLinearGradient1034)" stroke-linecap="round" class="TopRight"></path><path d="M1273 478L1744 7" stroke-width="6" stroke="url(#SvgjsLinearGradient1035)" stroke-linecap="round" class="BottomLeft"></path><path d="M563 714L893 384" stroke-width="8" stroke="url(#SvgjsLinearGradient1034)" stroke-linecap="round" class="TopRight"></path><path d="M157 208L-97 462" stroke-width="10" stroke="url(#SvgjsLinearGradient1034)" stroke-linecap="round" class="TopRight"></path><path d="M68 690L-439 1197" stroke-width="6" stroke="url(#SvgjsLinearGradient1034)" stroke-linecap="round" class="TopRight"></path><path d="M685 374L1129 -70" stroke-width="8" stroke="url(#SvgjsLinearGradient1035)" stroke-linecap="round" class="BottomLeft"></path><path d="M936 295L1326 -95" stroke-width="6" stroke="url(#SvgjsLinearGradient1034)" stroke-linecap="round" class="TopRight"></path><path d="M663 584L1302 -55" stroke-width="8" stroke="url(#SvgjsLinearGradient1035)" stroke-linecap="round" class="BottomLeft"></path><path d="M178 474L748 -96" stroke-width="6" stroke="url(#SvgjsLinearGradient1034)" stroke-linecap="round" class="TopRight"></path><path d="M116 802L-384 1302" stroke-width="10" stroke="url(#SvgjsLinearGradient1035)" stroke-linecap="round" class="BottomLeft"></path><path d="M238 344L774 -192" stroke-width="8" stroke="url(#SvgjsLinearGradient1034)" stroke-linecap="round" class="TopRight"></path><path d="M1384 623L1657 350" stroke-width="6" stroke="url(#SvgjsLinearGradient1034)" stroke-linecap="round" class="TopRight"></path><path d="M408 129L-273 810" stroke-width="10" stroke="url(#SvgjsLinearGradient1035)" stroke-linecap="round" class="BottomLeft"></path><path d="M451 777L1134 94" stroke-width="10" stroke="url(#SvgjsLinearGradient1034)" stroke-linecap="round" class="TopRight"></path><path d="M412 290L1080 -378" stroke-width="8" stroke="url(#SvgjsLinearGradient1034)" stroke-linecap="round" class="TopRight"></path><path d="M883 268L336 815" stroke-width="8" stroke="url(#SvgjsLinearGradient1034)" stroke-linecap="round" class="TopRight"></path><path d="M1147 164L846 465" stroke-width="6" stroke="url(#SvgjsLinearGradient1035)" stroke-linecap="round" class="BottomLeft"></path><path d="M315 119L706 -272" stroke-width="8" stroke="url(#SvgjsLinearGradient1035)" stroke-linecap="round" class="BottomLeft"></path><path d="M554 791L1170 175" stroke-width="8" stroke="url(#SvgjsLinearGradient1035)" stroke-linecap="round" class="BottomLeft"></path><path d="M809 414L1358 -135" stroke-width="6" stroke="url(#SvgjsLinearGradient1034)" stroke-linecap="round" class="TopRight"></path><path d="M869 10L1193 -314" stroke-width="6" stroke="url(#SvgjsLinearGradient1034)" stroke-linecap="round" class="TopRight"></path><path d="M863 692L1305 250" stroke-width="10" stroke="url(#SvgjsLinearGradient1034)" stroke-linecap="round" class="TopRight"></path><path d="M643 141L1016 -232" stroke-width="6" stroke="url(#SvgjsLinearGradient1034)" stroke-linecap="round" class="TopRight"></path><path d="M842 858L1317 383" stroke-width="6" stroke="url(#SvgjsLinearGradient1035)" stroke-linecap="round" class="BottomLeft"></path><path d="M738 904L1401 241" stroke-width="10" stroke="url(#SvgjsLinearGradient1035)" stroke-linecap="round" class="BottomLeft"></path><path d="M405 70L-247 722" stroke-width="6" stroke="url(#SvgjsLinearGradient1035)" stroke-linecap="round" class="BottomLeft"></path><path d="M1418 514L1909 23" stroke-width="10" stroke="url(#SvgjsLinearGradient1035)" stroke-linecap="round" class="BottomLeft"></path><path d="M1352 883L905 1330" stroke-width="8" stroke="url(#SvgjsLinearGradient1035)" stroke-linecap="round" class="BottomLeft"></path><path d="M1287 512L1056 743" stroke-width="6" stroke="url(#SvgjsLinearGradient1035)" stroke-linecap="round" class="BottomLeft"></path><path d="M77 594L597 74" stroke-width="10" stroke="url(#SvgjsLinearGradient1035)" stroke-linecap="round" class="BottomLeft"></path><path d="M519 20L948 -409" stroke-width="6" stroke="url(#SvgjsLinearGradient1034)" stroke-linecap="round" class="TopRight"></path><path d="M621 331L1154 -202" stroke-width="10" stroke="url(#SvgjsLinearGradient1035)" stroke-linecap="round" class="BottomLeft"></path><path d="M566 909L242 1233" stroke-width="8" stroke="url(#SvgjsLinearGradient1035)" stroke-linecap="round" class="BottomLeft"></path><path d="M665 361L1286 -260" stroke-width="10" stroke="url(#SvgjsLinearGradient1035)" stroke-linecap="round" class="BottomLeft"></path><path d="M700 533L1024 209" stroke-width="10" stroke="url(#SvgjsLinearGradient1035)" stroke-linecap="round" class="BottomLeft"></path><path d="M632 444L274 802" stroke-width="8" stroke="url(#SvgjsLinearGradient1035)" stroke-linecap="round" class="BottomLeft"></path><path d="M1128 316L712 732" stroke-width="6" stroke="url(#SvgjsLinearGradient1035)" stroke-linecap="round" class="BottomLeft"></path></g><defs><mask id="SvgjsMask1033"><rect width="1440" height="915" fill="#ffffff"></rect></mask><linearGradient x1="0%" y1="100%" x2="100%" y2="0%" id="SvgjsLinearGradient1034"><stop stop-color="rgba(217, 39, 79, 0)" offset="0"></stop><stop stop-color="rgba(217, 39, 79, 1)" offset="1"></stop></linearGradient><linearGradient x1="100%" y1="0%" x2="0%" y2="100%" id="SvgjsLinearGradient1035"><stop stop-color="rgba(217, 39, 79, 0)" offset="0"></stop><stop stop-color="rgba(217, 39, 79, 1)" offset="1"></stop></linearGradient></defs></svg>